<?xml version="1.0" encoding="utf-8"?>
<!-- Generator: Adobe Illustrator 25.4.1, SVG Export Plug-In . SVG Version: 6.00 Build 0)  -->
<svg version="1.0" id="Layer_1" xmlns="http://www.w3.org/2000/svg" xmlns:xlink="http://www.w3.org/1999/xlink" x="0px" y="0px"
	 viewBox="0 0 841.89 595.28" style="enable-background:new 0 0 841.89 595.28;" xml:space="preserve">
<style type="text/css">
	.st0{fill:#231F20;}
	.st1{fill:#353535;}
	.st2{fill:#363636;}
	.st3{fill:#FEC829;}
	.st4{fill:#EE502E;}
	.st5{fill:#CB2525;}
	.st6{fill:#FEFEFE;}
</style>
<g>
	<g>
		<path class="st0" d="M321.75,257.79c10.86,0,18.71,3.44,26.03,10c0.97,0.86,0.97,2.15,0.11,3.01l-6.56,6.77
			c-0.75,0.86-1.83,0.86-2.69,0c-4.52-3.98-10.54-6.34-16.56-6.34c-13.77,0-23.98,11.51-23.98,25.06
			c0,13.44,10.32,24.84,24.09,24.84c6.45,0,11.94-2.47,16.45-6.13c0.86-0.75,2.04-0.65,2.69,0l6.67,6.88
			c0.86,0.75,0.65,2.15-0.11,2.9c-7.31,7.1-16.56,10.43-26.13,10.43c-21.51,0-38.82-17.1-38.82-38.61
			C282.93,275.11,300.25,257.79,321.75,257.79z"/>
		<path class="st0" d="M358.21,331.35l33.45-72.38c0.32-0.65,0.86-1.18,1.83-1.18h1.08c1.08,0,1.51,0.54,1.83,1.18l33.12,72.38
			c0.65,1.4-0.21,2.8-1.83,2.8h-9.36c-1.61,0-2.37-0.65-3.12-2.15l-5.27-11.61h-32.16L372.52,332c-0.43,1.08-1.4,2.15-3.12,2.15
			h-9.36C358.43,334.15,357.57,332.75,358.21,331.35z M404.67,308.45l-10.75-23.66h-0.32l-10.54,23.66H404.67z"/>
		<path class="st0" d="M453.18,259.4c0.11-0.86,0.75-1.61,1.94-1.61h1.72c0.86,0,1.51,0.43,1.83,1.08l23.66,50.76
			c0.22,0,0.22,0,0.32,0l23.66-50.76c0.32-0.65,0.86-1.08,1.83-1.08h1.72c1.18,0,1.83,0.75,1.94,1.61l12.69,72.27
			c0.32,1.51-0.54,2.47-1.94,2.47h-9.79c-0.97,0-1.83-0.86-2.04-1.61l-6.34-40.76c-0.11,0-0.32,0-0.32,0l-18.82,42.26
			c-0.22,0.65-0.86,1.18-1.83,1.18h-1.94c-0.97,0-1.5-0.54-1.83-1.18l-19.04-42.26c0,0-0.21,0-0.32,0l-6.24,40.76
			c-0.11,0.75-0.97,1.61-1.94,1.61h-9.68c-1.4,0-2.26-0.97-2.04-2.47L453.18,259.4z"/>
		<path class="st0" d="M540.93,260.91c0-1.08,0.86-2.04,2.04-2.04h24.63c12.8,0,22.69,8.6,22.69,19.9c0,8.28-6.78,14.73-11.83,17.1
			c5.7,1.83,13.98,7.64,13.98,17.53c0,12.04-10.32,20.76-23.44,20.76h-26.03c-1.18,0-2.04-0.97-2.04-2.04V260.91z M566.31,290.49
			c5.48,0,9.25-4.3,9.25-9.68s-3.76-9.14-9.25-9.14h-11.51v18.82H566.31z M567.82,321.46c5.38,0,9.68-4.19,9.68-9.79
			c0-5.38-5.38-9.36-10.97-9.36h-11.72v19.14H567.82z"/>
		<path class="st0" d="M611.16,260.91c0-1.08,0.86-2.04,2.04-2.04h9.89c1.08,0,2.04,0.97,2.04,2.04v60.33h27.42
			c1.18,0,2.04,0.97,2.04,2.04v8.82c0,1.08-0.86,2.04-2.04,2.04H613.2c-1.18,0-2.04-0.97-2.04-2.04V260.91z"/>
		<path class="st0" d="M675.15,297.91l-24.52-35.92c-0.86-1.4,0-3.12,1.72-3.12h10.97c0.86,0,1.4,0.54,1.72,0.97l17.21,24.74
			l17.21-24.74c0.32-0.43,0.86-0.97,1.72-0.97h11.08c1.72,0,2.58,1.72,1.72,3.12l-24.84,35.81v34.31c0,1.08-0.97,2.04-2.04,2.04
			h-9.89c-1.18,0-2.04-0.97-2.04-2.04V297.91z"/>
	</g>
	<g>
		<path class="st1" d="M224.14,226.5c3.32-2.21,6.65-4.41,9.95-6.64c4.22-2.85,8.67-5.21,13.69-6.32c1.27,0,2.53,0,3.8,0
			c7.53,1.34,12.73,5.97,16.93,12c0.93,1.34,1.64,2.81,2.24,4.32c0.92,2.34,0.62,3.14-1.59,4.29c-6.66,3.45-13.32,6.91-19.97,10.36
			c-0.28,0.14-0.54,0.32-0.8,0.49c-5.51,2.83-11.03,5.66-16.54,8.49c-0.48,0.25-0.89,0.58-1.08,1.1c-0.58,1.67-1.65,3.04-2.68,4.43
			c-2.3,2.3-5.07,3.67-8.24,4.36c-3.77,0.82-7.32,0.21-10.69-1.55c-0.98-0.51-1.93-1.18-1.51-2.59c1.19-4.04,0.54-7.95-1.12-11.67
			c-1.23-2.77-0.71-5.04,1.05-7.32c1.69-2.18,3.84-3.88,5.81-5.77C216.97,231.81,220.55,229.15,224.14,226.5z"/>
		<path class="st2" d="M182.96,381.4c-0.94-0.04-1.89,0.03-2.84,0.03c-0.62,0-1.19-0.27-1.37-0.83c-0.23-0.72,0.4-1,0.94-1.23
			c5.5-2.38,10.98-4.8,16.5-7.11c2.63-1.1,2.89-1.31,2.88-4.12c-0.01-2.63-0.03-5.26-0.05-7.89c0.01-4.45,0.03-8.89,0.04-13.34
			c1.24-0.27,2.48-0.55,3.73-0.82c0.03,4.61,0.07,9.22,0.1,13.83c-0.02,3.53-0.07,7.07-0.06,10.6c0,1.41-0.41,2.79-1.23,3.93
			c-1.42,1.99-2.57,4.17-4.07,6.11c-0.6,0.77-1.56,1.18-2.53,1.17C191.27,381.68,184.4,381.47,182.96,381.4z"/>
		<path class="st3" d="M228.07,259.01c1.03-1.39,2.09-2.77,2.68-4.43c0.18-0.53,0.59-0.85,1.08-1.1c5.52-2.83,11.03-5.66,16.54-8.49
			c6.9,8.05,11.77,17.22,14.23,27.51c5.82,24.37,0.55,46.17-16.08,64.94c-9.54,10.77-21.56,17.72-35.62,21.01
			c-0.03-4.82-0.05-9.65-0.08-14.47c2.5-1.21,5.09-2.28,7.5-3.67c13.52-7.84,20.84-19.47,21.23-35.23
			c0.14-5.65-0.76-11.19-2.08-16.67C235.05,278.39,231.2,268.82,228.07,259.01z"/>
		<path class="st2" d="M210.82,343.99c0.03,4.82,0.05,9.65,0.08,14.47c-0.02,2.42-0.01,4.84-0.09,7.26
			c-0.04,1.05,0.59,1.17,1.36,1.33c7.23,1.42,22.01,4.34,22.3,4.38c0.96,0.22,2.17,0.28,1.97,1.56c-0.18,1.15-2.36,0.93-3.3,0.96
			c-8.2,0.04-14.94-0.29-23-0.26c-2.67,0.01-2.89-0.24-2.91-2.86c-0.02-3.84-0.04-7.69-0.07-11.53c0.04-4.74,0.07-9.48,0.11-14.22
			C208.43,344.62,209.59,344.18,210.82,343.99z"/>
		<path class="st3" d="M207.28,345.09c-0.04,4.74-0.07,9.48-0.11,14.22c-1.43,0.21-2.86,0.41-4.29,0.62
			c-0.03-4.61-0.07-9.22-0.1-13.84C204.28,345.76,205.78,345.42,207.28,345.09z"/>
		<path class="st3" d="M199.06,346.92c-0.01,4.45-0.03,8.89-0.04,13.34c-18.16,1.01-34.44-4.07-48.55-15.51
			c-14.41-11.68-22.92-26.82-25.45-45.23c-4.31-31.37,13.25-62.05,42.31-74.12c9.43-3.92,19.24-5.76,29.42-5.46
			c9.25,0.27,18.14,2.28,26.6,6.09c0.28,0.13,0.54,0.31,0.8,0.47c-3.59,2.66-7.18,5.32-10.77,7.98c-1.54-1.12-3.17-2.05-5-2.62
			c-9.01-2.83-17.57-1.64-25.55,3.21c-7.4,4.5-11.08,11.35-11.16,19.96c-0.04,3.77,0.79,7.49,1.78,11.15
			c1.97,7.34,4.7,14.47,5.83,22.03c-0.5,1.41-1.6,2.45-2.36,3.71c-7.65,12.64-17.49,22.97-31.09,29.3c-0.64,0.3-0.76,0.54-0.44,1.16
			c4.22,8.24,10.51,14.35,18.86,18.33c0.17,0.23,0.41,0.3,0.68,0.29l-0.01,0c0.13,0.27,0.38,0.32,0.64,0.32
			c0.21,0.1,0.42,0.2,0.62,0.3c0.28,0.43,0.76,0.54,1.18,0.73c6.9,3.01,14.09,4.76,21.63,4.98
			C192.36,347.39,195.7,347.1,199.06,346.92z"/>
		<path class="st4" d="M199.06,346.92c-3.35,0.19-6.7,0.48-10.07,0.38c-7.55-0.21-14.74-1.96-21.63-4.98
			c-0.42-0.18-0.91-0.3-1.18-0.73c0.52-0.56,1-0.02,1.43,0.11c6.61,1.92,13.29,2.18,20.05,0.92c5.09-0.95,9.97-2.55,14.65-4.73
			c4.51-2.1,8.66-4.83,12.11-8.4c3.33-3.45,6-7.43,7.76-11.95c2.14-5.53,3.41-11.25,2.08-17.1c-2.47-10.92-9.25-18.02-20.18-20.62
			c-7.34-1.74-14.14,0.15-20.3,4.46c-1.65,1.16-2.73,2.92-4.5,3.91c-1.13-7.56-3.86-14.69-5.83-22.03
			c-0.98-3.66-1.81-7.39-1.78-11.15c0.08-8.61,3.76-15.45,11.16-19.96c7.98-4.85,16.54-6.04,25.55-3.21c1.83,0.57,3.46,1.5,5,2.62
			c-1.97,1.89-4.12,3.59-5.81,5.77c-1.76,2.27-2.28,4.55-1.05,7.32c1.65,3.72,2.3,7.64,1.12,11.67c-0.42,1.41,0.53,2.08,1.51,2.59
			c3.37,1.76,6.92,2.36,10.69,1.55c3.17-0.69,5.94-2.06,8.24-4.36c3.12,9.81,6.98,19.38,9.39,29.41c1.32,5.48,2.22,11.02,2.08,16.67
			c-0.38,15.76-7.71,27.39-21.23,35.23c-2.4,1.39-4.99,2.45-7.5,3.67c-1.23,0.19-2.39,0.64-3.54,1.1c-1.5,0.34-3,0.67-4.5,1.01
			C201.54,346.37,200.3,346.64,199.06,346.92z M185.73,254.02c0.01,2.02,0.45,3.94,1.2,5.82c0.51,1.27,0.93,1.74,2.32,0.75
			c2.96-2.1,6.33-3.06,9.99-2.62c3.63,0.43,3.74,0.36,3.6-3.44c-0.01-0.26,0-0.53-0.04-0.79c-0.42-3.37-1.53-6.38-4.76-8.05
			C192.25,242.68,185.73,247.12,185.73,254.02z"/>
		<path class="st5" d="M179.27,288.2c1.76-1,2.85-2.76,4.5-3.91c6.17-4.32,12.96-6.21,20.3-4.46c10.94,2.6,17.71,9.7,20.18,20.62
			c1.33,5.85,0.06,11.57-2.08,17.1c-1.75,4.52-4.42,8.5-7.76,11.95c-3.45,3.57-7.61,6.3-12.11,8.4c-4.68,2.18-9.56,3.78-14.65,4.73
			c-6.76,1.26-13.44,1.01-20.05-0.92c-0.44-0.13-0.92-0.67-1.43-0.11c-0.21-0.1-0.42-0.2-0.62-0.3c-0.12-0.29-0.37-0.34-0.64-0.32
			c0,0,0.01,0,0.01,0c-0.14-0.31-0.39-0.34-0.68-0.29c-8.36-3.98-14.64-10.09-18.86-18.33c-0.32-0.62-0.19-0.86,0.44-1.16
			c13.6-6.33,23.45-16.66,31.09-29.3C177.67,290.65,178.76,289.61,179.27,288.2z"/>
		<path class="st4" d="M164.23,340.69c0.29-0.05,0.54-0.01,0.68,0.29C164.64,340.99,164.4,340.92,164.23,340.69z"/>
		<path class="st4" d="M164.9,340.98c0.28-0.02,0.52,0.03,0.64,0.32C165.28,341.3,165.03,341.25,164.9,340.98z"/>
		<path class="st6" d="M185.73,254.02c-0.01-6.9,6.52-11.33,12.32-8.33c3.24,1.68,4.34,4.68,4.76,8.05
			c0.03,0.26,0.03,0.53,0.04,0.79c0.14,3.8,0.02,3.87-3.6,3.44c-3.65-0.44-7.03,0.52-9.99,2.62c-1.39,0.99-1.82,0.52-2.32-0.75
			C186.19,257.96,185.75,256.04,185.73,254.02z M190.63,256.35c2.55-2.18,5.37-2.43,8.39-1.96c-0.31-2.1-0.96-3.81-2.99-4.44
			c-1.66-0.51-3.31-0.26-4.5,1.09C190.22,252.51,189.84,254.26,190.63,256.35z"/>
		<path class="st2" d="M190.63,256.35c-0.79-2.1-0.41-3.84,0.9-5.31c1.2-1.35,2.85-1.6,4.5-1.09c2.03,0.63,2.68,2.34,2.99,4.44
			C196,253.93,193.18,254.17,190.63,256.35z"/>
	</g>
</g>
</svg>
